<svg xmlns="http://www.w3.org/2000/svg" viewBox="0 0 40 40" fill="none">
  <defs>
    <linearGradient id="rp-bg" x1="4" y1="4" x2="36" y2="36" gradientUnits="userSpaceOnUse">
      <stop stop-color="#7c3aed"/>
      <stop offset="1" stop-color="#4f46e5"/>
    </linearGradient>
    <linearGradient id="rp-wing" x1="22" y1="10" x2="34" y2="22" gradientUnits="userSpaceOnUse">
      <stop stop-color="#c4b5fd"/>
      <stop offset="1" stop-color="#818cf8"/>
    </linearGradient>
  </defs>
  <rect width="40" height="40" rx="11" fill="url(#rp-bg)"/>
  <path fill="#fff" fill-opacity=".95" d="M11 12.5a1.5 1.5 0 0 1 1.5-1.5h11a1.5 1.5 0 0 1 1.5 1.5v15a1.5 1.5 0 0 1-1.5 1.5h-11A1.5 1.5 0 0 1 11 27.5v-15Z"/>
  <path stroke="#7c3aed" stroke-width="1.4" stroke-linecap="round" d="M14.5 16h9M14.5 20h9M14.5 24h6"/>
  <path fill="url(#rp-wing)" d="M22.2 9.2 31.8 11.8 28.4 21.4 18.8 18.8z"/>
  <circle cx="27.5" cy="12.5" r="1.2" fill="#fff"/>
</svg>
